<svg id="mermaid-1621997455312" width="100%" xmlns="http://www.w3.org/2000/svg" xmlns:xlink="http://www.w3.org/1999/xlink" height="382.25" style="max-width: 573.921875px;" viewBox="-20 -20 573.921875 382.25"><style>#mermaid-1621997455312{font-family:"trebuchet ms",verdana,arial,sans-serif;font-size:16px;fill:#333;}#mermaid-1621997455312 .error-icon{fill:#552222;}#mermaid-1621997455312 .error-text{fill:#552222;stroke:#552222;}#mermaid-1621997455312 .edge-thickness-normal{stroke-width:2px;}#mermaid-1621997455312 .edge-thickness-thick{stroke-width:3.5px;}#mermaid-1621997455312 .edge-pattern-solid{stroke-dasharray:0;}#mermaid-1621997455312 .edge-pattern-dashed{stroke-dasharray:3;}#mermaid-1621997455312 .edge-pattern-dotted{stroke-dasharray:2;}#mermaid-1621997455312 .marker{fill:#333333;stroke:#333333;}#mermaid-1621997455312 .marker.cross{stroke:#333333;}#mermaid-1621997455312 svg{font-family:"trebuchet ms",verdana,arial,sans-serif;font-size:16px;}#mermaid-1621997455312 g.classGroup text{fill:#9370DB;fill:#131300;stroke:none;font-family:"trebuchet ms",verdana,arial,sans-serif;font-size:10px;}#mermaid-1621997455312 g.classGroup text .title{font-weight:bolder;}#mermaid-1621997455312 .classTitle{font-weight:bolder;}#mermaid-1621997455312 .node rect,#mermaid-1621997455312 .node circle,#mermaid-1621997455312 .node ellipse,#mermaid-1621997455312 .node polygon,#mermaid-1621997455312 .node path{fill:#ECECFF;stroke:#9370DB;stroke-width:1px;}#mermaid-1621997455312 .divider{stroke:#9370DB;stroke:1;}#mermaid-1621997455312 g.clickable{cursor:pointer;}#mermaid-1621997455312 g.classGroup rect{fill:#ECECFF;stroke:#9370DB;}#mermaid-1621997455312 g.classGroup line{stroke:#9370DB;stroke-width:1;}#mermaid-1621997455312 .classLabel .box{stroke:none;stroke-width:0;fill:#ECECFF;opacity:0.5;}#mermaid-1621997455312 .classLabel .label{fill:#9370DB;font-size:10px;}#mermaid-1621997455312 .relation{stroke:#333333;stroke-width:1;fill:none;}#mermaid-1621997455312 .dashed-line{stroke-dasharray:3;}#mermaid-1621997455312 #compositionStart,#mermaid-1621997455312 .composition{fill:#333333 !important;stroke:#333333 !important;stroke-width:1;}#mermaid-1621997455312 #compositionEnd,#mermaid-1621997455312 .composition{fill:#333333 !important;stroke:#333333 !important;stroke-width:1;}#mermaid-1621997455312 #dependencyStart,#mermaid-1621997455312 .dependency{fill:#333333 !important;stroke:#333333 !important;stroke-width:1;}#mermaid-1621997455312 #dependencyStart,#mermaid-1621997455312 .dependency{fill:#333333 !important;stroke:#333333 !important;stroke-width:1;}#mermaid-1621997455312 #extensionStart,#mermaid-1621997455312 .extension{fill:#333333 !important;stroke:#333333 !important;stroke-width:1;}#mermaid-1621997455312 #extensionEnd,#mermaid-1621997455312 .extension{fill:#333333 !important;stroke:#333333 !important;stroke-width:1;}#mermaid-1621997455312 #aggregationStart,#mermaid-1621997455312 .aggregation{fill:#ECECFF !important;stroke:#333333 !important;stroke-width:1;}#mermaid-1621997455312 #aggregationEnd,#mermaid-1621997455312 .aggregation{fill:#ECECFF !important;stroke:#333333 !important;stroke-width:1;}#mermaid-1621997455312 .edgeTerminals{font-size:11px;}#mermaid-1621997455312:root{--mermaid-font-family:"trebuchet ms",verdana,arial,sans-serif;}</style><g></g><defs><marker id="extensionStart" class="extension" refX="0" refY="7" markerWidth="190" markerHeight="240" orient="auto"><path d="M 1,7 L18,13 V 1 Z"></path></marker></defs><defs><marker id="extensionEnd" refX="19" refY="7" markerWidth="20" markerHeight="28" orient="auto"><path d="M 1,1 V 13 L18,7 Z"></path></marker></defs><defs><marker id="compositionStart" class="extension" refX="0" refY="7" markerWidth="190" markerHeight="240" orient="auto"><path d="M 18,7 L9,13 L1,7 L9,1 Z"></path></marker></defs><defs><marker id="compositionEnd" refX="19" refY="7" markerWidth="20" markerHeight="28" orient="auto"><path d="M 18,7 L9,13 L1,7 L9,1 Z"></path></marker></defs><defs><marker id="aggregationStart" class="extension" refX="0" refY="7" markerWidth="190" markerHeight="240" orient="auto"><path d="M 18,7 L9,13 L1,7 L9,1 Z"></path></marker></defs><defs><marker id="aggregationEnd" refX="19" refY="7" markerWidth="20" markerHeight="28" orient="auto"><path d="M 18,7 L9,13 L1,7 L9,1 Z"></path></marker></defs><defs><marker id="dependencyStart" class="extension" refX="0" refY="7" markerWidth="190" markerHeight="240" orient="auto"><path d="M 5,7 L9,13 L1,7 L9,1 Z"></path></marker></defs><defs><marker id="dependencyEnd" refX="19" refY="7" markerWidth="20" markerHeight="28" orient="auto"><path d="M 18,7 L9,13 L14,7 L9,1 Z"></path></marker></defs><g id="classid-TestProfileModel-0" class="classGroup" transform="translate(0,175.59375 )"><rect x="0" y="0" width="88.9375" height="30" class=" "></rect><text y="15" x="0"><tspan class="title" x="5">TestProfileModel</tspan></text><line x1="0" y1="21" y2="21" x2="88.9375"></line><text x="5" y="31" fill="white" class="classText"></text><line x1="0" y1="26" y2="26" x2="88.9375"></line><text x="5" y="41" fill="white" class="classText"></text></g><g id="classid-ProfileModel-1" class="classGroup" transform="translate(243.3203125,80.0625 )"><rect x="0" y="0" width="68.796875" height="30" class=" "></rect><text y="15" x="0"><tspan class="title" x="5">ProfileModel</tspan></text><line x1="0" y1="21" y2="21" x2="68.796875"></line><text x="5" y="31" fill="white" class="classText"></text><line x1="0" y1="26" y2="26" x2="68.796875"></line><text x="5" y="41" fill="white" class="classText"></text></g><g id="classid-PropsModel-2" class="classGroup" transform="translate(138.9375,175.5625 )"><rect x="0" y="0" width="63.546875" height="30.0625" class=" "></rect><text y="15" x="0"><tspan class="title" x="5">PropsModel</tspan></text><line x1="0" y1="21.0625" y2="21.0625" x2="63.546875"></line><text x="5" y="31.0625" fill="white" class="classText"></text><line x1="0" y1="26.0625" y2="26.0625" x2="63.546875"></line><text x="5" y="41.0625" fill="white" class="classText"></text></g><g id="classid-WindupVertexFrame-3" class="classGroup" transform="translate(136.2578125,0 )"><rect x="0" y="0" width="106.515625" height="30.0625" class=" "></rect><text y="15" x="0"><tspan class="title" x="5">WindupVertexFrame</tspan></text><line x1="0" y1="21.0625" y2="21.0625" x2="106.515625"></line><text x="5" y="31.0625" fill="white" class="classText"></text><line x1="0" y1="26.0625" y2="26.0625" x2="106.515625"></line><text x="5" y="41.0625" fill="white" class="classText"></text></g><g id="classid-ServerPropsModel-4" class="classGroup" transform="translate(15.8515625,276.125 )"><rect x="0" y="0" width="134.609375" height="61.125" class=" "></rect><text y="15" x="0"><tspan class="title" x="25.3125">ServerPropsModel</tspan></text><line x1="0" y1="21.0625" y2="21.0625" x2="134.609375"></line><text x="5" y="31.0625" fill="white" class="classText"><tspan x="5">+string contextPath</tspan><tspan x="5" dy="10">+string servletContextPath</tspan><tspan x="5" dy="10">+int port</tspan></text><line x1="0" y1="57.125" y2="57.125" x2="134.609375"></line><text x="5" y="72.125" fill="white" class="classText"></text></g><g id="classid-MainProfileModel-5" class="classGroup" transform="translate(252.484375,175.59375 )"><rect x="0" y="0" width="90.46875" height="30" class=" "></rect><text y="15" x="0"><tspan class="title" x="5">MainProfileModel</tspan></text><line x1="0" y1="21" y2="21" x2="90.46875"></line><text x="5" y="31" fill="white" class="classText"></text><line x1="0" y1="26" y2="26" x2="90.46875"></line><text x="5" y="41" fill="white" class="classText"></text></g><g id="classid-DatasourcePropsModel-6" class="classGroup" transform="translate(200.4609375,271.125 )"><rect x="0" y="0" width="115.609375" height="71.125" class=" "></rect><text y="15" x="0"><tspan class="title" x="5">DatasourcePropsModel</tspan></text><line x1="0" y1="21.0625" y2="21.0625" x2="115.609375"></line><text x="5" y="31.0625" fill="white" class="classText"><tspan x="5">+string url</tspan><tspan x="5" dy="10">+string driver</tspan><tspan x="5" dy="10">+string username</tspan><tspan x="5" dy="10">+string password</tspan></text><line x1="0" y1="67.125" y2="67.125" x2="115.609375"></line><text x="5" y="82.125" fill="white" class="classText"></text></g><g id="classid-SpringBootProfileModel-7" class="classGroup" transform="translate(392.953125,160.0625 )"><rect x="0" y="0" width="140.96875" height="61.0625" class=" "></rect><text y="15" x="0"><tspan class="title" x="15.9140625">SpringBootProfileModel</tspan></text><line x1="0" y1="21.0625" y2="21.0625" x2="140.96875"></line><text x="5" y="31.0625" fill="white" class="classText"><tspan x="5">+string name</tspan><tspan x="5" dy="10">+boolean withPropertiesFile</tspan><tspan x="5" dy="10">+boolean withAnnotations</tspan></text><line x1="0" y1="57.0625" y2="57.0625" x2="140.96875"></line><text x="5" y="72.0625" fill="white" class="classText"></text></g><path d="M243.3203125,100.96148177920686L210.17838541666666,106.64498481600572C177.03645833333334,112.32848785280457,110.75260416666667,123.69549392640228,77.61067708333333,136.13420529653447C44.46875,148.57291666666666,44.46875,162.08333333333334,44.46875,168.83854166666666L44.46875,175.59375" id="edge0" class="relation" marker-start="url(#dependencyStart)"></path><path d="M243.3203125,103.15011738571395L220.69856770833334,108.4688478214283C198.07682291666666,113.78757825714263,152.83333333333334,124.42503912857131,137.8841581815091,136.49376956428566C122.93498302968487,148.5625,138.28012230936972,162.0625,145.95269194921215,168.8125L153.6252615890546,175.5625" id="edge1" class="relation" marker-start="url(#aggregationStart)"></path><g class="classLabel"><rect class="box" x="126.1875" y="114.609375" width="38.84375" height="16.078125"></rect><text class="label" x="145.61143299611425" y="126.1230222629851" fill="red" text-anchor="middle">profiles</text></g><path d="M182.4546923790008,30.0625L180.49739989916733,34.229166666666664C178.54010741933385,38.395833333333336,174.62552245966694,46.729166666666664,172.66822997983346,57.5625C170.7109375,68.39583333333333,170.7109375,81.72916666666667,170.7109375,95.0625C170.7109375,108.39583333333333,170.7109375,121.72916666666667,170.7109375,135.14583333333334C170.7109375,148.5625,170.7109375,162.0625,170.7109375,168.8125L170.7109375,175.5625" id="edge2" class="relation" marker-start="url(#dependencyStart)"></path><path d="M147.0115538829488,205.625L136.36900323579064,212.375C125.72645258863253,219.125,104.44135129431625,232.625,93.79880064715813,244.375C83.15625,256.125,83.15625,266.125,83.15625,271.125L83.15625,276.125" id="edge3" class="relation" marker-start="url(#dependencyStart)"></path><path d="M285.21875,110.0625L287.3020833333333,114.22916666666667C289.3854166666667,118.39583333333333,293.5520833333333,126.72916666666667,295.6354166666667,137.65104166666666C297.71875,148.57291666666666,297.71875,162.08333333333334,297.71875,168.83854166666666L297.71875,175.59375" id="edge4" class="relation" marker-start="url(#dependencyStart)"></path><path d="M194.4103211170512,205.625L205.05287176420936,212.375C215.6954224113675,219.125,236.98052370568374,232.625,247.62307435284185,243.54166666666666C258.265625,254.45833333333334,258.265625,262.7916666666667,258.265625,266.9583333333333L258.265625,271.125" id="edge5" class="relation" marker-start="url(#dependencyStart)"></path><path d="M312.1171875,102.47121613663133L337.3372395833333,107.9030967805261C362.5572916666667,113.33497742442087,412.9973958333333,124.19873871221044,438.2174479166667,133.79728602277189C463.4375,143.39583333333334,463.4375,151.72916666666666,463.4375,155.89583333333334L463.4375,160.0625" id="edge6" class="relation" marker-start="url(#dependencyStart)"></path><path d="M187.9002334517445,175.5625L195.61933516812041,168.8125C203.33843688449633,162.0625,218.77664031724817,148.5625,231.02739893466574,137.64583333333334C243.27815755208334,126.72916666666667,252.34147135416666,118.39583333333333,256.8731282552083,114.22916666666667L261.40478515625,110.0625" id="edge7" class="relation" marker-start="url(#aggregationStart)"></path><g class="classLabel"><rect class="box" x="210.234375" y="131.640625" width="29.453125" height="16.078125"></rect><text class="label" x="224.9600119769907" y="143.15542541582704" fill="red" text-anchor="middle">props</text></g><path d="M222.634831186573,30.0625L231.81548432214416,34.229166666666664C240.99613745771535,38.395833333333336,259.3574437288577,46.729166666666664,268.53809686442884,55.0625C277.71875,63.395833333333336,277.71875,71.72916666666667,277.71875,75.89583333333333L277.71875,80.0625" id="edge8" class="relation" marker-start="url(#dependencyStart)"></path></svg>